#define _width 143
#define _height 98
static char _bits[] = {
 0x00,0x00,0x00,0x00,0x00,0x00,0x00,0x00,0x00,0x00,0x00,0x00,0x00,0x00,0x00,
 0x00,0x00,0x00,0x00,0x00,0x00,0x00,0x00,0x00,0x00,0x00,0x00,0x00,0x00,0x00,
 0x00,0x00,0x00,0x00,0x00,0x00,0x00,0x00,0x00,0x00,0x00,0x00,0x00,0x55,0xb7,
 0x0a,0x00,0x00,0x00,0x00,0x00,0x00,0x00,0x00,0x00,0x00,0x00,0x00,0x00,0x00,
 0x68,0x55,0xa9,0xb2,0x02,0x00,0x00,0x00,0x00,0x00,0x00,0x00,0x00,0x00,0x00,
 0x00,0x00,0x80,0x56,0x55,0x55,0x55,0x55,0x00,0x00,0x00,0x00,0x00,0x00,0x00,
 0x00,0x00,0x00,0x00,0x00,0x50,0xa9,0xaa,0xaa,0xaa,0xaa,0x00,0x00,0x00,0x00,
 0x00,0x00,0x00,0x00,0x00,0x00,0x00,0x00,0xaa,0x2a,0x49,0x55,0x55,0x55,0x0b,
 0x00,0x00,0x00,0x00,0x00,0x00,0x00,0x00,0x00,0x00,0x80,0xaa,0xaa,0xaa,0x4a,
 0x2a,0x95,0x14,0x00,0x00,0x00,0x00,0x00,0x00,0x00,0x00,0x00,0x00,0xa0,0xaa,
 0xaa,0x00,0x00,0x40,0x65,0x55,0x00,0x00,0x00,0x00,0x00,0x00,0x00,0x00,0x00,
 0x00,0xa8,0xaa,0x02,0x00,0x00,0x00,0x94,0xaa,0x02,0x00,0x00,0x00,0x00,0x00,
 0x00,0x00,0x00,0x00,0x54,0x55,0x00,0x00,0x00,0x00,0xa0,0xaa,0x04,0x00,0x00,
 0x00,0x00,0x00,0x00,0x00,0x00,0x00,0x95,0x12,0x00,0x00,0x00,0x00,0x00,0x55,
 0x05,0x00,0x00,0x00,0x00,0x00,0x00,0x00,0x00,0x80,0xaa,0x04,0x00,0x00,0x00,
 0x00,0x00,0x48,0x15,0x00,0x00,0x00,0x00,0x00,0x00,0x00,0x00,0x40,0x55,0x01,
 0x00,0x00,0x00,0x00,0x00,0x50,0x55,0x00,0x00,0x00,0x00,0x00,0x00,0x00,0x00,
 0xa0,0x12,0x00,0x00,0x00,0x00,0x00,0x00,0x40,0x55,0x00,0x00,0x00,0x00,0x00,
 0x00,0x00,0x00,0xa8,0x14,0x00,0x00,0x00,0x00,0x00,0x00,0x00,0xa9,0x00,0x00,
 0x00,0x00,0x00,0x00,0x00,0x00,0xa8,0x0a,0x00,0x00,0x00,0x00,0x00,0x00,0x00,
 0xaa,0x01,0x00,0x00,0x00,0x00,0x00,0x00,0x00,0x54,0x05,0x00,0x00,0x00,0x00,
 0x00,0x00,0x00,0x54,0x06,0x00,0x00,0x00,0x00,0x00,0x00,0x00,0xaa,0x00,0x00,
 0x00,0x00,0x00,0x00,0x00,0x00,0x90,0x0a,0x00,0x00,0x00,0x00,0x00,0x00,0x00,
 0x95,0x00,0x00,0x00,0x00,0x00,0x00,0x00,0x00,0x50,0x05,0x00,0x00,0x00,0x00,
 0x00,0x00,0x00,0x29,0x00,0x00,0x00,0x00,0x00,0x00,0x00,0x00,0xa0,0x2a,0x00,
 0x00,0x00,0x00,0x00,0x00,0x80,0x2a,0x00,0x00,0x00,0x00,0x00,0x00,0x00,0x00,
 0x40,0x15,0x00,0x00,0x00,0x00,0x00,0x00,0x80,0x0a,0x00,0x00,0x00,0x00,0x00,
 0x00,0x00,0x00,0x00,0x15,0x00,0x00,0x00,0x00,0x00,0x00,0x40,0x15,0x00,0x00,
 0xd0,0x01,0x00,0x00,0x00,0x00,0x00,0x55,0x00,0x00,0x00,0x00,0x00,0x00,0xa0,
 0x0a,0x00,0x00,0x54,0x02,0x0a,0x00,0x00,0x00,0x00,0xa9,0x00,0x00,0x00,0x00,
 0x00,0x00,0x54,0x05,0x00,0x00,0x55,0x85,0x0a,0x00,0x00,0x00,0x00,0x2a,0x05,
 0x00,0x00,0x00,0x00,0xa0,0x55,0x01,0x00,0xa0,0xaa,0xa2,0x2a,0x00,0x00,0x00,
 0x00,0x54,0xb5,0x00,0x00,0x00,0x00,0x54,0xaa,0x02,0x00,0xa8,0xaa,0x5a,0x15,
 0x00,0x00,0x00,0x00,0x54,0x55,0x17,0x00,0x00,0x00,0xaa,0x2a,0x01,0x00,0xaa,
 0x4a,0x55,0x01,0x00,0x00,0x00,0x00,0xa8,0xaa,0xd4,0x02,0x00,0x00,0x55,0x55,
 0x01,0x80,0xaa,0x52,0xa5,0x00,0x00,0x00,0x00,0x00,0xa8,0x52,0x55,0x15,0x00,
 0x80,0x4a,0x25,0x00,0x40,0x55,0x55,0x19,0x00,0x00,0x00,0x00,0x00,0x20,0x95,
 0xaa,0x6a,0x01,0x00,0x55,0x09,0x00,0xa0,0x4a,0xaa,0x2a,0x00,0x00,0x00,0x00,
 0x00,0x00,0x54,0x55,0x95,0x00,0x00,0x29,0x00,0x00,0x20,0xa9,0xaa,0x0a,0x00,
 0x00,0x00,0x00,0x00,0x00,0x80,0x92,0xaa,0x02,0x00,0x02,0x00,0x00,0x50,0x55,
 0x55,0x35,0xd0,0x01,0x00,0x00,0x00,0x00,0x00,0xa8,0x54,0x01,0x00,0x00,0x00,
 0x00,0xa8,0xaa,0x2a,0xa5,0x54,0x00,0x00,0x00,0x00,0x00,0x00,0x00,0x55,0x05,
 0x00,0x00,0x00,0x00,0x50,0x55,0x55,0x29,0x55,0x01,0x00,0x00,0x00,0x00,0x00,
 0x00,0xa8,0x02,0x00,0x00,0x00,0x00,0xa8,0xaa,0x52,0x55,0x55,0x00,0x00,0x00,
 0x00,0x00,0x00,0x00,0x20,0x05,0x00,0x00,0x00,0x00,0x28,0x95,0x54,0x55,0x15,
 0x00,0x00,0x00,0x00,0x00,0x00,0x00,0xc0,0x02,0x00,0x00,0x00,0x00,0x54,0xa5,
 0xaa,0xaa,0x02,0x00,0x00,0x00,0x00,0x00,0x00,0x00,0x20,0x05,0x00,0x00,0x00,
 0x00,0xa8,0xaa,0x2a,0x55,0x01,0x00,0x00,0x00,0x00,0x00,0x00,0x00,0x40,0x05,
 0x00,0xda,0xb6,0xda,0x56,0x55,0x55,0x55,0x01,0x00,0x00,0x00,0x00,0x00,0x00,
 0x00,0x40,0x05,0x80,0x52,0xa5,0x2a,0xa9,0xaa,0xaa,0xaa,0x02,0x00,0x00,0x00,
 0x00,0x00,0x00,0x00,0x40,0x15,0xa0,0xaa,0xaa,0xaa,0x2a,0x55,0x55,0x25,0x05,
 0x00,0x00,0x00,0x00,0x00,0x00,0x00,0x40,0x05,0xa0,0x2a,0x55,0x55,0x55,0xa9,
 0xaa,0xaa,0x02,0x00,0x00,0x00,0x00,0x00,0x00,0x00,0x80,0x0a,0xa8,0xaa,0xaa,
 0xaa,0xaa,0x4a,0x49,0xa9,0x02,0x00,0x00,0x00,0x00,0x00,0x00,0x00,0x00,0x15,
 0x50,0x55,0x55,0xa5,0xaa,0xaa,0xaa,0xaa,0x00,0x00,0x00,0x00,0x00,0x00,0x00,
 0x00,0x80,0x0a,0x54,0x02,0x00,0x10,0x40,0x55,0x55,0x55,0x00,0x00,0x00,0x00,
 0x00,0x00,0x00,0x00,0x00,0x15,0x54,0x01,0x00,0x00,0xa0,0xaa,0xaa,0x0a,0x00,
 0x00,0x00,0x00,0x00,0x00,0x00,0x00,0x00,0x15,0x54,0x00,0x00,0x00,0x80,0x54,
 0x2a,0x01,0x00,0x00,0x00,0x00,0x00,0x00,0x00,0x00,0x00,0x29,0xaa,0x00,0x00,
 0x00,0x00,0x95,0x52,0x01,0x00,0x00,0x00,0x00,0x00,0x00,0x00,0x00,0x00,0x2a,
 0x14,0x00,0x00,0x00,0x00,0xaa,0x2a,0x00,0x00,0x00,0x00,0x00,0x00,0x00,0x00,
 0x00,0x00,0x15,0x6a,0x00,0x00,0x00,0x00,0x50,0x05,0x00,0x00,0x00,0x00,0x00,
 0x00,0x00,0x00,0x00,0x00,0x2a,0x12,0x00,0x00,0x00,0x00,0x00,0x00,0x00,0x00,
 0x00,0x00,0x00,0x00,0x00,0x00,0x00,0x00,0x15,0x54,0x00,0x00,0x00,0x00,0x00,
 0x00,0x00,0x00,0x00,0x00,0x00,0x00,0x00,0x00,0x00,0x00,0x2a,0x2a,0x00,0x00,
 0x00,0x00,0x00,0x00,0x00,0x00,0x00,0x00,0x00,0x00,0x00,0x00,0x00,0x00,0x15,
 0xd4,0x00,0x00,0x00,0x00,0x00,0x00,0x00,0x00,0x00,0x00,0x00,0x00,0x00,0x00,
 0x00,0x00,0x52,0x94,0x00,0x00,0x00,0x00,0x00,0x00,0x00,0x00,0x00,0x00,0x00,
 0x00,0x00,0x00,0x00,0x00,0x15,0x54,0x00,0x00,0x00,0x00,0x00,0x00,0x00,0x00,
 0x00,0x00,0x00,0x00,0x00,0x00,0x00,0x00,0x15,0x54,0x01,0x00,0x00,0x00,0x00,
 0x00,0x00,0x00,0x00,0x00,0x00,0x00,0x00,0x00,0x00,0x80,0x2a,0xa8,0x02,0x00,
 0x00,0x00,0x00,0x00,0x00,0x00,0x00,0x00,0x00,0x00,0x00,0x00,0x00,0x40,0x0a,
 0xa8,0x04,0x00,0x00,0x00,0x00,0x00,0x00,0x00,0x00,0x00,0x00,0x00,0x00,0x00,
 0x00,0xa0,0x0a,0x50,0xb5,0x02,0x00,0x00,0x80,0xaa,0xaa,0xaa,0xaa,0xaa,0x02,
 0x00,0x00,0x00,0x24,0xaa,0x0a,0x50,0x55,0x0d,0x00,0x00,0x40,0x55,0x55,0x55,
 0x55,0x55,0x2d,0x00,0x00,0x00,0xab,0xa9,0x02,0xa0,0xaa,0x12,0x00,0x00,0xa0,
 0xa4,0xa4,0xa4,0xa4,0xa4,0x28,0x00,0x00,0x80,0x54,0x4a,0x05,0x40,0x55,0x15,
 0x00,0x00,0x40,0x55,0x55,0x55,0x55,0x55,0x2b,0x00,0x00,0x80,0xaa,0xaa,0x02,
 0x00,0x92,0x0a,0x00,0x00,0x50,0x55,0x55,0x55,0x55,0x55,0x2a,0x00,0x00,0x40,
 0x55,0x55,0x01,0x00,0x54,0x15,0x00,0x00,0xa0,0xaa,0xaa,0xaa,0xaa,0xaa,0xaa,
 0x00,0x00,0x40,0xa5,0x2a,0x00,0x00,0x40,0x15,0x00,0x00,0x50,0x55,0x2a,0x55,
 0x55,0x55,0x55,0x00,0x00,0x40,0xa9,0x0a,0x00,0x00,0x00,0x2a,0x00,0x00,0x50,
 0x02,0x00,0x00,0x00,0x00,0xa4,0x00,0x00,0xa0,0x0a,0x00,0x00,0x00,0x00,0x55,
 0x00,0x00,0xa8,0x02,0x00,0x00,0x00,0x00,0x28,0x01,0x00,0x50,0x05,0x00,0x00,
 0x00,0x00,0xaa,0x00,0x00,0x54,0x01,0x00,0x00,0x00,0x00,0x54,0x01,0x00,0x50,
 0x0a,0x00,0x00,0x00,0x00,0x54,0x01,0x00,0xaa,0x00,0x00,0x00,0x00,0x00,0xa8,
 0x02,0x00,0xa8,0x02,0x00,0x00,0x00,0x00,0xa4,0x00,0x00,0x95,0x00,0x00,0x00,
 0x00,0x00,0x50,0x05,0x00,0x54,0x01,0x00,0x00,0x00,0x00,0x28,0x07,0x40,0xa9,
 0x00,0x00,0x00,0x00,0x00,0xa0,0x1a,0x00,0x95,0x02,0x00,0x00,0x00,0x00,0x50,
 0x59,0xa8,0x2a,0x00,0x00,0x00,0x00,0x00,0xa0,0xa4,0xa2,0xaa,0x00,0x00,0x00,
 0x00,0x00,0x50,0xa5,0x55,0x15,0x00,0x00,0x00,0x00,0x00,0x80,0xaa,0xaa,0xaa,
 0x00,0x00,0x00,0x00,0x00,0x40,0x55,0xaa,0x0a,0x00,0x00,0x00,0x00,0x00,0x80,
 0xaa,0xaa,0x2a,0x00,0x00,0x00,0x00,0x00,0x80,0xaa,0x2a,0x05,0x00,0x00,0x00,
 0x00,0x00,0x00,0x55,0x55,0x15,0x00,0x00,0x00,0x00,0x00,0x00,0xaa,0xaa,0x02,
 0x00,0x00,0x00,0x00,0x00,0x00,0x54,0x55,0x02,0x00,0x00,0x00,0x00,0x00,0x00,
 0x54,0x55,0x01,0x00,0x00,0x00,0x00,0x00,0x00,0x50,0xaa,0x02,0x00,0x00,0x00,
 0x00,0x00,0x00,0x40,0x25,0x00,0x00,0x00,0x00,0x00,0x00,0x00,0x80,0x52,0x00,
 0x00,0x00,0x00,0x00,0x00,0x00,0x00,0x00,0x00,0x00,0x00,0x00,0x00,0x00,0x00,
 0x00,0x04,0x00,0x00,0x00,0x00,0x00,0x00,0x00,0x00,0x00,0x00,0x00,0x00,0x00,
 0x00,0x00,0x00,0x00,0x00,0x00,0x00,0x00,0x00,0x00,0x00,0x00,0x00,0x00,0x00,
 0x00,0x00,0x00,0x00,0x00,0x00,0x00,0x00,0x00,0x00,0x00,0x00,0x00,0x00,0x00,
 0x00,0x00,0x00,0x00,0x00,0x00,0x00,0x00,0x00,0x00,0x00,0x00,0x00,0x00,0x00,
 0x00,0x00,0x00,0x00,0x00,0x00,0x00,0x00,0x00,0x00,0x00,0x00,0x00,0x00,0x00,
 0x00,0x00,0x00,0x00,0x00,0x00,0x00,0x00,0x00,0x00,0x00,0x00,0x00,0x00,0x00,
 0x00,0x00,0x00,0x00,0x00,0x00,0x00,0x00,0x00,0x00,0x00,0x00,0x00,0x00,0x00,
 0x00,0x00,0x00,0x00,0x00,0x00,0x00,0x00,0x00,0x00,0x00,0x00,0x00,0x00,0x00,
 0x00,0x00,0x00,0x00,0x00,0x00,0x00,0x00,0x00,0x00,0x00,0x00,0x00,0x00,0x00,
 0x00,0x00,0x00,0x00,0x00,0x00,0x00,0x00,0x00,0x00,0x00,0x00,0x00,0x00,0x00,
 0x00,0x00,0x00,0x00,0x00,0x00,0x00,0x00,0x00,0x00,0x00,0x00,0x00,0x00,0x00,
 0x00,0x00,0x00,0x00,0x00,0x00,0x00,0x00,0x00,0x00,0x00,0x00,0x00,0x00,0x00,
 0x00,0x00,0x00,0x00,0x00,0x00,0x00,0x00,0x00,0x00,0x00,0x00,0x00,0x00,0x00,
 0x00,0x00,0x00,0x00,0x00,0x00,0x00,0x00,0x00,0x00,0x00,0x00,0x00,0x00,0x00,
 0x00,0x00,0x00,0x00,0x00,0x00,0x00,0x00,0x00,0x00,0x00,0x00,0x00,0x00,0x00,
 0x00,0x00,0x00,0x00,0x00,0x00,0x00,0x00,0x00,0x00,0x00,0x00,0x00,0x00,0x00,
 0x00,0x00,0x00,0x00,0x00,0x00,0x00,0x00,0x00,0x00,0x00,0x00,0x00,0x00,0x00,
 0x00,0x00,0x00,0x00,0x00,0x00,0x00,0x00,0x00,0x00,0x00,0x00,0x00,0x00,0x00,
 0x00,0x00,0x00,0x00,0x00,0x00,0x00,0x00,0x00,0x00,0x00,0x00,0x00,0x00,0x00,
 0x00,0x00,0x00,0x00,0x00,0x00,0x00,0x00,0x00 };
